<?xml version="1.0" encoding="UTF-8" standalone="no"?>
<!-- Created with Inkscape (http://www.inkscape.org/) -->

<svg
   width="153.87767mm"
   height="116.07142mm"
   viewBox="0 0 153.87767 116.07142"
   version="1.1"
   id="svg1"
   xmlns="http://www.w3.org/2000/svg"
   xmlns:svg="http://www.w3.org/2000/svg">
  <defs
     id="defs1" />
  <g
     id="layer1"
     transform="translate(-56.208859,-74.938951)">
    <path
       style="fill:none;fill-opacity:1;stroke:#000000;stroke-width:1;stroke-linecap:round;stroke-dasharray:none;stroke-opacity:1"
       d="m 209.61544,75.410042 c -6.81689,19.166473 -36.21463,23.559795 -57.94737,23.474652 -0.73061,-0.0029 -1.91533,-0.02072 -2.64567,-0.0019 -18.13108,0.467136 -32.53848,15.104015 -38.80165,31.874235 -0.25562,0.68444 -0.64501,1.80353 -0.85958,2.5019 -3.2937,10.72007 -2.77722,26.07206 8.01047,30.74286 0.67027,0.29021 1.79643,0.66433 2.50319,0.849 10.89315,2.84629 24.76767,-3.24065 28.11964,-12.44587 0.24987,-0.68622 0.53956,-1.83808 0.65696,-2.559 2.10544,-12.92915 -15.61163,-14.92197 -25.96009,-15.58736 -0.7291,-0.0469 -1.91169,-0.1176 -2.64195,-0.14015 -15.75863,-0.4868 -30.862535,6.892 -41.133702,19.07794 -0.470861,0.55864 -1.214254,1.48161 -1.642364,2.07357 -7.96885,11.01884 -6.941207,27.15281 -19.919388,34.77018"
       id="path3" />
    <path
       style="fill:none;fill-opacity:1;stroke:#000000;stroke-width:1;stroke-linecap:round;stroke-dasharray:none;stroke-opacity:1"
       d="m 60.523828,182.14728 -3.809012,8.18012 a 0.12976026,0.12976026 51.093512 0 0 0.14634,0.18132 l 9.462425,-2.14662"
       id="path4" />
  </g>
</svg>
