<?xml version="1.0" encoding="UTF-8" standalone="no"?>
<!-- Uploaded to: SVG Repo, www.svgrepo.com, Generator: SVG Repo Mixer Tools -->

<svg
   width="800px"
   height="800px"
   viewBox="0 0 48 48"
   version="1.1"
   id="svg6"
   sodipodi:docname="doc.svg"
   inkscape:version="1.3.2 (091e20ef0f, 2023-11-25, custom)"
   xmlns:inkscape="http://www.inkscape.org/namespaces/inkscape"
   xmlns:sodipodi="http://sodipodi.sourceforge.net/DTD/sodipodi-0.dtd"
   xmlns="http://www.w3.org/2000/svg"
   xmlns:svg="http://www.w3.org/2000/svg">
  <sodipodi:namedview
     id="namedview6"
     pagecolor="#505050"
     bordercolor="#ffffff"
     borderopacity="1"
     inkscape:showpageshadow="0"
     inkscape:pageopacity="0"
     inkscape:pagecheckerboard="1"
     inkscape:deskcolor="#505050"
     inkscape:zoom="1.4525"
     inkscape:cx="400"
     inkscape:cy="400"
     inkscape:window-width="3440"
     inkscape:window-height="1366"
     inkscape:window-x="0"
     inkscape:window-y="0"
     inkscape:window-maximized="1"
     inkscape:current-layer="svg6" />
  <defs
     id="defs1">
    <style
       id="style1">.a{fill:none;stroke:#000000;stroke-linecap:round;stroke-linejoin:round;}</style>
  </defs>
  <path
     class="a"
     d="M14,4.5H10.5a2,2,0,0,0-2,2v35a2,2,0,0,0,2,2h27a2,2,0,0,0,2-2V6.5a2,2,0,0,0-2-2H24"
     id="path1"
     style="stroke-width:1.11402;stroke-dasharray:none" />
  <path
     class="a"
     d="M12,4.5l1.4142-1.4142A2,2,0,0,1,14.8284,2.5H23a1,1,0,0,1,1,1v25l-5-5-5,5V4.5"
     id="path2"
     style="stroke-width:1.11402;stroke-dasharray:none" />
  <line
     class="a"
     x1="14"
     y1="38"
     x2="34"
     y2="38"
     id="line2"
     style="stroke-width:1.11402;stroke-dasharray:none" />
  <line
     class="a"
     x1="24"
     y1="10"
     x2="34"
     y2="10"
     id="line3"
     style="stroke-width:1.11402;stroke-dasharray:none" />
  <line
     class="a"
     x1="24"
     y1="17"
     x2="34"
     y2="17"
     id="line4"
     style="stroke-width:1.11402;stroke-dasharray:none" />
  <line
     class="a"
     x1="24"
     y1="24"
     x2="34"
     y2="24"
     id="line5"
     style="stroke-width:1.11402;stroke-dasharray:none" />
  <line
     class="a"
     x1="14"
     y1="31"
     x2="34"
     y2="31"
     id="line6"
     style="stroke-width:1.11402;stroke-dasharray:none" />
</svg>
