<?xml version="1.0" encoding="UTF-8" standalone="no"?>
<!-- Created with Inkscape (http://www.inkscape.org/) -->

<svg
   viewBox="0 0 434.32031 233.43555"
   version="1.1"
   id="svg1"
   width="434.32031"
   height="233.43555"
   xmlns="http://www.w3.org/2000/svg"
   xmlns:svg="http://www.w3.org/2000/svg">
  <defs
     id="defs1" />
  <g
     id="layer1"
     transform="translate(-38.839842,-139.28222)">
    <path
       id="rect3"
       style="fill:#ffffff;fill-opacity:1;stroke:none;stroke-width:13.6119;stroke-linecap:round"
       d="M 38.839844,98.71875 V 312.1543 H 473.16016 V 98.71875 a 20,20 45 0 0 -20,-20 H 58.839844 a 20,20 135 0 0 -20,20 z"
       transform="translate(-2e-6,60.563475)" />
    <path
       id="rect8"
       style="stroke-width:10.2998;stroke-linecap:round"
       d="m 105.12221,333.14883 h 301.75558 c 2.216,0 4,1.784 4,4 0,2.216 -1.784,4 -4,4 H 105.12221 c -2.216,0 -4,-1.784 -4,-4 0,-2.216 1.784,-4 4,-4 z" />
    <path
       id="rect9"
       style="stroke-width:10.2998;stroke-linecap:round"
       d="m 105.12221,293.58008 h 301.75558 c 2.216,0 4,1.784 4,4 0,2.216 -1.784,4 -4,4 H 105.12221 c -2.216,0 -4,-1.784 -4,-4 0,-2.216 1.784,-4 4,-4 z" />
    <path
       style="font-weight:bold;font-size:50px;line-height:1.5;font-family:'Noto Sans';-inkscape-font-specification:'Noto Sans Bold';letter-spacing:-1.91px;word-spacing:0px;stroke-width:18.567;stroke-linecap:round"
       d="m 88.315054,207.50178 q -4.35,0 -6.65,3.25 -2.3,3.25 -2.3,8.9 0,5.7 2.1,8.85 2.15,3.1 6.85,3.1 2.2,0 4.35,-0.5 2.2,-0.5 4.75,-1.4 v 6.35 q -2.35,0.95 -4.65,1.4 -2.3,0.45 -5.15,0.45 -5.5,0 -9.1,-2.25 -3.55,-2.3 -5.25,-6.4 -1.7,-4.15 -1.7,-9.65 0,-5.4 1.95,-9.55 1.95,-4.15 5.65,-6.5 3.75,-2.35 9.15,-2.35 2.65,0 5.3,0.7 2.7,0.65 5.15,1.8 l -2.45,6.15 q -2,-0.95 -4.05,-1.65 -2,-0.7 -3.95,-0.7 z m 42.789956,-5.8 -12.15,35.7 h -8.25 l -12.099999,-35.7 h 7.649999 l 6.7,21.25 q 0.2,0.55 0.55,2.05 0.4,1.45 0.8,3.1 0.4,1.6 0.55,2.7 0.15,-1.1 0.5,-2.7 0.4,-1.65 0.8,-3.1 0.4,-1.5 0.55,-2.05 l 6.75,-21.25 z m 23.63998,25.8 q 0,4.75 -3.45,7.6 -3.4,2.8 -9.7,2.8 -5.65,0 -10.1,-2.15 v -7.05 q 2.55,1.1 5.25,2.05 2.75,0.9 5.45,0.9 2.8,0 3.95,-1.05 1.2,-1.1 1.2,-2.75 0,-1.35 -0.95,-2.3 -0.9,-0.95 -2.45,-1.75 -1.55,-0.85 -3.55,-1.8 -1.25,-0.6 -2.7,-1.4 -1.45,-0.85 -2.8,-2.05 -1.3,-1.25 -2.15,-3 -0.85,-1.75 -0.85,-4.2 0,-4.8 3.25,-7.45 3.25,-2.7 8.85,-2.7 2.8,0 5.3,0.65 2.55,0.65 5.3,1.85 l -2.45,5.9 q -2.45,-1 -4.4,-1.55 -1.95,-0.55 -4,-0.55 -2.15,0 -3.3,1 -1.15,1 -1.15,2.6 0,1.9 1.7,3 1.7,1.1 5.05,2.7 2.75,1.3 4.65,2.7 1.95,1.4 3,3.3 1.05,1.9 1.05,4.7 z m 11.44003,-20.35 q 0,2 -0.15,3.85 -0.1,1.85 -0.2,2.6 h 0.4 q 1.3,-2.1 3.35,-3.05 2.05,-0.95 4.55,-0.95 4.45,0 7.1,2.4 2.7,2.35 2.7,7.6 v 17.8 h -7.45 v -15.95 q 0,-5.9 -4.4,-5.9 -3.35,0 -4.65,2.35 -1.25,2.3 -1.25,6.65 v 12.85 h -7.45 v -38 h 7.45 z m 48.28998,16.55 q 0,6.8 -3.6,10.5 -3.55,3.7 -9.7,3.7 -3.8,0 -6.8,-1.65 -2.95,-1.65 -4.65,-4.8 -1.7,-3.2 -1.7,-7.75 0,-6.8 3.55,-10.45 3.55,-3.65 9.75,-3.65 3.85,0 6.8,1.65 2.95,1.65 4.65,4.8 1.7,3.1 1.7,7.65 z m -18.85,0 q 0,4.05 1.3,6.15 1.35,2.05 4.35,2.05 2.95,0 4.25,-2.05 1.35,-2.1 1.35,-6.15 0,-4.05 -1.35,-6.05 -1.3,-2.05 -4.3,-2.05 -2.95,0 -4.3,2.05 -1.3,2 -1.3,6.05 z m 38.33997,-14.1 q 0.55,0 1.3,0.05 0.75,0.05 1.2,0.15 l -0.55,7 q -0.35,-0.1 -1.05,-0.15 -0.65,-0.1 -1.15,-0.1 -1.9,0 -3.65,0.7 -1.75,0.65 -2.85,2.15 -1.05,1.5 -1.05,4.1 v 13.9 h -7.45 v -27.3 h 5.65 l 1.1,4.6 h 0.35 q 1.2,-2.1 3.3,-3.6 2.1,-1.5 4.85,-1.5 z m 17.04003,22.35 q 1.25,0 2.4,-0.25 1.15,-0.25 2.3,-0.6 v 5.55 q -1.2,0.5 -3,0.85 -1.75,0.4 -3.85,0.4 -2.45,0 -4.4,-0.8 -1.9,-0.8 -3.05,-2.75 -1.1,-2 -1.1,-5.5 v -13.15 h -3.55 v -3.15 l 4.1,-2.5 2.15,-5.75 h 4.75 v 5.8 h 7.65 v 5.6 h -7.65 v 13.15 q 0,1.55 0.9,2.35 0.9,0.75 2.35,0.75 z m 19.39,5.95 q -6.1,0 -9.45,-3.35 -3.3,-3.4 -3.3,-10.65 0,-5 1.7,-8.15 1.7,-3.15 4.7,-4.65 3.05,-1.5 7,-1.5 2.8,0 4.85,0.55 2.1,0.55 3.65,1.3 l -2.2,5.75 q -1.75,-0.7 -3.3,-1.15 -1.5,-0.45 -3,-0.45 -5.8,0 -5.8,8.25 0,4.1 1.5,6.05 1.55,1.95 4.3,1.95 2.35,0 4.15,-0.6 1.8,-0.65 3.5,-1.75 v 6.35 q -1.7,1.1 -3.6,1.55 -1.85,0.5 -4.7,0.5 z m 37.74,-27.8 v 27.3 h -5.7 l -1,-3.5 h -0.4 q -1.3,2.1 -3.6,3.05 -2.25,0.95 -4.8,0.95 -4.4,0 -7.05,-2.35 -2.65,-2.4 -2.65,-7.65 v -17.8 h 7.45 v 15.95 q 0,2.9 1.05,4.4 1.05,1.5 3.35,1.5 3.4,0 4.65,-2.3 1.25,-2.35 1.25,-6.7 v -12.85 z m 17.38997,21.85 q 1.25,0 2.4,-0.25 1.15,-0.25 2.3,-0.6 v 5.55 q -1.2,0.5 -3,0.85 -1.75,0.4 -3.85,0.4 -2.45,0 -4.4,-0.8 -1.9,-0.8 -3.05,-2.75 -1.1,-2 -1.1,-5.5 v -13.15 h -3.55 v -3.15 l 4.1,-2.5 2.15,-5.75 h 4.75 v 5.8 h 7.65 v 5.6 h -7.65 v 13.15 q 0,1.55 0.9,2.35 0.9,0.75 2.35,0.75 z m 7.23999,1.95 q 0,-2.3 1.25,-3.2 1.25,-0.95 3.05,-0.95 1.75,0 3,0.95 1.25,0.9 1.25,3.2 0,2.2 -1.25,3.2 -1.25,0.95 -3,0.95 -1.8,0 -3.05,-0.95 -1.25,-1 -1.25,-3.2 z m 24.49,4 q -6.1,0 -9.45,-3.35 -3.3,-3.4 -3.3,-10.65 0,-5 1.7,-8.15 1.7,-3.15 4.7,-4.65 3.05,-1.5 7,-1.5 2.8,0 4.85,0.55 2.1,0.55 3.65,1.3 l -2.2,5.75 q -1.75,-0.7 -3.3,-1.15 -1.5,-0.45 -3,-0.45 -5.8,0 -5.8,8.25 0,4.1 1.5,6.05 1.55,1.95 4.3,1.95 2.35,0 4.15,-0.6 1.8,-0.65 3.5,-1.75 v 6.35 q -1.7,1.1 -3.6,1.55 -1.85,0.5 -4.7,0.5 z m 37.49001,-14.2 q 0,6.8 -3.6,10.5 -3.55,3.7 -9.7,3.7 -3.8,0 -6.8,-1.65 -2.95,-1.65 -4.65,-4.8 -1.7,-3.2 -1.7,-7.75 0,-6.8 3.55,-10.45 3.55,-3.65 9.75,-3.65 3.85,0 6.8,1.65 2.95,1.65 4.65,4.8 1.7,3.1 1.7,7.65 z m -18.85,0 q 0,4.05 1.3,6.15 1.35,2.05 4.35,2.05 2.95,0 4.25,-2.05 1.35,-2.1 1.35,-6.15 0,-4.05 -1.35,-6.05 -1.3,-2.05 -4.3,-2.05 -2.95,0 -4.3,2.05 -1.3,2 -1.3,6.05 z m 55.13998,-14.1 q 4.65,0 7,2.4 2.4,2.35 2.4,7.6 v 17.8 h -7.45 v -15.95 q 0,-5.9 -4.1,-5.9 -2.95,0 -4.2,2.1 -1.25,2.1 -1.25,6.05 v 13.7 h -7.45 v -15.95 q 0,-5.9 -4.1,-5.9 -3.1,0 -4.3,2.35 -1.15,2.3 -1.15,6.65 v 12.85 h -7.45 v -27.3 h 5.7 l 1,3.5 h 0.4 q 1.25,-2.1 3.4,-3.05 2.2,-0.95 4.55,-0.95 3,0 5.1,1 2.1,0.95 3.2,3 h 0.65 q 1.25,-2.1 3.45,-3.05 2.25,-0.95 4.6,-0.95 z"
       id="text9"
       aria-label="CVShortcut.com" />
  </g>
</svg>
